<svg xmlns="http://www.w3.org/2000/svg" viewBox="0 0 400 300">
  <rect width="400" height="300" fill="#0a0f1e"/>
  <rect x="100" y="30" width="40" height="40" fill="#ff6977" rx="4"/>
  <rect x="140" y="30" width="40" height="40" fill="#ff6977" rx="4"/>
  <rect x="180" y="30" width="40" height="40" fill="#ff6977" rx="4"/>
  <rect x="140" y="70" width="40" height="40" fill="#ff6977" rx="4"/>
  <rect x="180" y="70" width="40" height="40" fill="#6bdcff" rx="4"/>
  <rect x="220" y="70" width="40" height="40" fill="#6bdcff" rx="4"/>
  <rect x="220" y="110" width="40" height="40" fill="#6bdcff" rx="4"/>
  <rect x="100" y="110" width="40" height="40" fill="#f5c84b" rx="4"/>
  <rect x="140" y="110" width="40" height="40" fill="#f5c84b" rx="4"/>
  <rect x="100" y="150" width="40" height="40" fill="#3ddc97" rx="4"/>
  <rect x="100" y="190" width="40" height="40" fill="#3ddc97" rx="4"/>
  <rect x="260" y="110" width="40" height="40" fill="#7a4cff" rx="4"/>
  <rect x="260" y="150" width="40" height="40" fill="#7a4cff" rx="4"/>
  <text x="200" y="260" fill="#eef4ff" font-family="sans-serif" font-size="20" font-weight="700" text-anchor="middle">俄罗斯方块</text>
</svg>
